<?xml version="1.0" standalone="no"?>
<!DOCTYPE svg PUBLIC "-//W3C//DTD SVG 20010904//EN"
 "http://www.w3.org/TR/2001/REC-SVG-20010904/DTD/svg10.dtd">
<svg version="1.0" xmlns="http://www.w3.org/2000/svg"
 width="123.000000pt" height="30.000000pt" viewBox="0 0 123.000000 30.000000"
 preserveAspectRatio="xMidYMid meet">

<g transform="translate(0.000000,30.000000) scale(0.100000,-0.100000)"
fill="#000000" stroke="none">
<path d="M53 178 c-4 -7 -8 -28 -8 -46 -1 -26 4 -34 21 -38 32 -8 64 4 64 26
0 19 -19 30 -51 30 -10 0 -19 5 -19 11 0 6 12 10 28 9 41 -3 49 -1 32 10 -21
14 -57 12 -67 -2z m57 -58 c0 -5 -11 -10 -24 -10 -14 0 -28 5 -31 10 -4 6 7
10 24 10 17 0 31 -4 31 -10z"/>
<path d="M145 140 c0 -40 3 -50 17 -50 11 0 15 6 11 20 -5 17 0 20 32 20 32 0
37 -3 32 -20 -4 -14 0 -20 11 -20 14 0 17 10 17 50 0 40 -3 50 -17 50 -11 0
-15 -6 -11 -20 5 -17 0 -20 -32 -20 -32 0 -37 3 -32 20 4 14 0 20 -11 20 -14
0 -17 -10 -17 -50z"/>
<path d="M296 174 c-32 -32 -8 -84 39 -84 28 0 55 24 55 50 0 26 -27 50 -55
50 -13 0 -31 -7 -39 -16z m69 -34 c0 -20 -6 -26 -28 -28 -18 -2 -29 2 -33 12
-11 28 4 48 33 44 22 -2 28 -8 28 -28z"/>
<path d="M405 140 c0 -40 3 -50 17 -50 11 0 15 6 11 20 -4 14 0 20 11 20 9 0
21 -9 28 -20 7 -11 22 -20 33 -20 18 0 18 1 3 16 -13 13 -14 21 -6 34 20 32 3
50 -49 50 l-48 0 0 -50z m85 20 c0 -5 -13 -10 -30 -10 -16 0 -30 5 -30 10 0 6
14 10 30 10 17 0 30 -4 30 -10z"/>
<path d="M553 140 c-21 -49 -21 -50 -2 -50 11 0 17 5 14 10 -4 6 7 10 25 10
18 0 29 -4 25 -10 -3 -5 3 -10 14 -10 19 0 19 1 -4 42 -13 23 -22 45 -19 50 3
4 -3 8 -13 8 -12 0 -25 -17 -40 -50z m47 -1 c0 -5 -4 -9 -10 -9 -5 0 -10 7
-10 16 0 8 5 12 10 9 6 -3 10 -10 10 -16z"/>
<path d="M673 178 c-4 -7 -8 -28 -8 -46 -1 -26 4 -34 21 -38 32 -8 64 4 64 26
0 19 -19 30 -51 30 -10 0 -19 5 -19 11 0 6 12 10 28 9 41 -3 49 -1 32 10 -21
14 -57 12 -67 -2z m57 -58 c0 -5 -11 -10 -24 -10 -14 0 -28 5 -31 10 -4 6 7
10 24 10 17 0 31 -4 31 -10z"/>
<path d="M768 153 c5 -48 18 -63 51 -63 36 0 51 17 51 57 0 18 5 33 11 33 7 0
10 -17 7 -44 l-3 -44 47 -4 c38 -2 48 0 48 12 0 12 -8 15 -36 12 l-36 -4 4 41
4 41 -36 0 c-34 0 -35 -1 -35 -37 0 -34 -3 -38 -25 -38 -22 0 -25 4 -25 38 0
27 -4 37 -15 37 -12 0 -15 -9 -12 -37z"/>
<path d="M1006 174 c-32 -32 -8 -84 39 -84 28 0 55 24 55 50 0 26 -27 50 -55
50 -13 0 -31 -7 -39 -16z m69 -34 c0 -20 -6 -26 -28 -28 -29 -4 -44 16 -33 44
4 10 15 14 33 12 22 -2 28 -8 28 -28z"/>
<path d="M1123 140 c12 -27 27 -50 32 -50 6 0 20 23 32 50 l22 50 -21 0 c-12
0 -19 -3 -15 -6 3 -3 1 -19 -5 -36 l-11 -31 -14 27 c-8 14 -11 31 -8 36 3 6
-3 10 -14 10 -19 0 -19 -1 2 -50z"/>
</g>
</svg>
